<svg height="128" width="128" xmlns="http://www.w3.org/2000/svg"><g fill="none" fill-rule="evenodd"><path d="m0 128h128v-128h-128z" fill="none"/><path d="m90.67 84.602-23.206-13.402v-48l31.866 8.4z" fill="#ced0d1"/><path d="m88.938 37.602-3.465-2 1.734-1-16.28-9.4-1.73 1-3.465-2 10.392-6 23.207 13.4z" fill="#fff"/><path d="m99.33 79.602-8.66 5v-43.997l-1.733 1v-4.003l10.393-6z" fill="#3a485f"/><path d="m70.928 67.204 16.278 9.4v-4l-16.278-9.4zm0-8 16.278 9.4v-4l-16.278-9.4zm0-8 16.278 9.4v-4l-16.278-9.4zm0-8 16.278 9.4v-4l-16.278-9.4zm16.278-2.6v4l-16.278-9.4v-4z" fill="#e5e6e8"/><path d="m70.928 25.201-1.731 1v4.002l1.73-1z" fill="#3a485f"/><path d="m65.732 24.201v4.002l3.464 2v-4.002z" fill="#ced0d1"/><path d="m90.67 82.602-1.732 1v2l1.732-1z" fill="#3a485f"/><path d="m65.732 70.2v2l23.205 13.402v-2z" fill="#ced0d1"/><path d="m67.464 69.2-1.731 1 23.205 13.402 1.732-1z" fill="#fff"/><path d="m65.732 122.19 3.792 3.81 34.641-20v-6z" fill="#ced0d1"/><path d="m14.965 88.5v6l54.56 31.5v-6z" fill="#3a485f"/><path d="m94.64 100.5-24.25 14-45.032-26 24.249-14z" fill="#e5e6e8"/><path d="m64.328 117 5.196 3 34.641-20-5.195-3z" fill="#fff"/><path d="m20.161 85.5-5.196 3 54.56 31.5 5.196-3zm29.445-17-5.196 3 54.56 31.5 5.195-3z" fill="#fff"/><path d="m34.884 90 17.32 10 17.32-10-17.32-10z" fill="#ced0d1"/><path d="m40.942 79.502c-1.91-1.103-5.01-1.103-6.92 0-1.912 1.104-1.912 2.892 0 3.996 1.91 1.103 5.01 1.103 6.92 0 1.91-1.104 1.91-2.892 0-3.996" fill="#fff"/><path d="m72.988 96-13.856 8-3.464-2 13.856-8zm6.929 4-13.856 8-3.464-2 13.856-8zm13.856 0-24.249 14-3.464-2 24.248-14z" fill="#ced0d1"/><path d="m14.965 88.5 5.196 3 32.909-19-5.196-3z" fill="#fff"/><path d="m39.214 80.5c-.957-.552-2.508-.552-3.464 0-.957.553-.957 1.448 0 2 .956.553 2.507.553 3.464 0 .956-.552.956-1.447 0-2m-26.821-45.5h-10.395l5.197 55 5.197-3zm49.875-28.796-5.195 3v52l5.195-3z" fill="#ced0d1"/><path d="m62.268 16.204v-10l-55.071 31.796v10zm0 42v-6l-55.071 31.796v6z" fill="#ced0d1"/><path d="m15.856 38c0-1.104-.775-1.552-1.732-1-.956.552-1.732 1.896-1.732 3s.776 1.552 1.732 1c.957-.552 1.732-1.896 1.732-3m5.197-3c0-1.104-.775-1.552-1.732-1-.956.552-1.732 1.896-1.732 3s.776 1.552 1.732 1c.957-.552 1.732-1.896 1.732-3m5.196-3c0-1.104-.775-1.552-1.732-1-.956.552-1.733 1.896-1.733 3s.777 1.552 1.733 1c.957-.552 1.732-1.896 1.732-3" fill="#697587"/><path d="m57.072 55.204-44.68 25.796v-36l44.68-25.796z" fill="#fff"/><path d="m19.32 49-3.464 2v-4l3.464-2zm30.824-17.796-27.36 15.796v-4l27.36-15.796zm-30.824 25.796-3.464 2v-4l3.464-2zm24.837-14.319-21.373 12.32v-4l21.373-12.32zm-24.837 22.319-3.464 2v-4l3.464-2zm30.824-17.796-27.36 15.796v-4l27.36-15.796zm-30.824 25.796-3.464 2v-4l3.464-2zm21.525-12.49-18.061 10.49v-4l18.06-10.49z" fill="#ced0d1"/><path d="m2 35 5.196 3v52l-5.196-3z" fill="#3a485f"/><path d="m62.268 6.204-5.195-3-55.073 31.796 5.197 3z" fill="#fff"/><path d="m117.34 100-23.206-13.401v-48l31.866 8.401z" fill="#ced0d1"/><path d="m115.607 53-3.464-2 1.733-1-16.279-9.401-1.73 1-3.465-2 10.392-6 23.206 13.401z" fill="#fff"/><path d="m126 95-8.66 5v-43.998l-1.733 1v-4.002l10.393-6z" fill="#3a485f"/><path d="m97.598 82.602 16.278 9.4v-4l-16.278-9.4zm0-8 16.278 9.4v-4l-16.278-9.4zm0-8 16.278 9.4v-4l-16.278-9.4zm0-8 16.278 9.4v-4l-16.278-9.4zm16.278-2.6v4l-16.278-9.4v-4z" fill="#e5e6e8"/><path d="m121.67 61c.956-.552 1.732-1.896 1.732-3s-.776-1.552-1.732-1c-.957.552-1.732 1.896-1.732 3s.775 1.552 1.732 1m0 4.012c-.957.552-1.732 1.896-1.732 3s.775 1.552 1.732 1c.956-.552 1.732-1.896 1.732-3s-.776-1.552-1.732-1m0 8.012c-.957.553-1.732 1.896-1.732 3 0 1.105.775 1.553 1.732 1 .956-.552 1.732-1.895 1.732-3 0-1.104-.776-1.552-1.732-1" fill="#697587"/><path d="m97.598 40.6-1.731 1v4l1.73-1z" fill="#3a485f"/><path d="m92.402 39.6v4.002l3.464 2v-4.003z" fill="#ced0d1"/><path d="m117.34 98-1.732 1v2l1.732-1z" fill="#3a485f"/><path d="m92.402 85.6v2l23.205 13.4v-2z" fill="#ced0d1"/><path d="m94.134 84.6-1.731 1 23.205 13.4 1.732-1z" fill="#fff"/><g stroke="#ff6f00" stroke-width="2"><path d="m64 37.808a40.897 40.897 0 0 1 3.359 2.17"/><path d="m72.178 43.936c9.589 8.928 16.979 22.396 19.09 35.071" stroke-dasharray="8.325 6.244"/><path d="m91.68 82.102a41 41 0 0 1 .2 3.994m-55.76-32.193c0-1.398.077-2.73.228-3.995"/><path d="m37.68 44.16c3.123-8.493 10.649-12.055 19.973-9.18" stroke-dasharray="7.876 5.907"/><path d="m60.427 36.006a33.903 33.903 0 0 1 3.573 1.801m0 64.385a40.897 40.897 0 0 1 -3.359-2.17"/><path d="m55.822 96.064c-9.589-8.928-16.979-22.396-19.09-35.07" stroke-dasharray="8.325 6.244"/><path d="m36.32 57.898a41 41 0 0 1 -.2-3.995m55.76 32.193c0 1.398-.077 2.73-.228 3.995"/><path d="m90.32 95.839c-3.123 8.494-10.649 12.056-19.973 9.18" stroke-dasharray="7.876 5.907"/><path d="m67.573 103.993a33.903 33.903 0 0 1 -3.573-1.8"/></g><path d="m73 70a9 9 0 0 0 -9-9 9 9 0 1 0 9 9" fill="#ff6f00"/></g></svg>